<?xml version="1.0" encoding="utf-8" standalone="no"?>
<!DOCTYPE svg PUBLIC "-//W3C//DTD SVG 1.1//EN"
  "http://www.w3.org/Graphics/SVG/1.1/DTD/svg11.dtd">
<!-- Created with matplotlib (https://matplotlib.org/) -->
<svg height="345.6pt" version="1.1" viewBox="0 0 460.8 345.6" width="460.8pt" xmlns="http://www.w3.org/2000/svg" xmlns:xlink="http://www.w3.org/1999/xlink">
 <defs>
  <style type="text/css">
*{stroke-linecap:butt;stroke-linejoin:round;}
  </style>
 </defs>
 <g id="figure_1">
  <g id="patch_1">
   <path d="M 0 345.6 
L 460.8 345.6 
L 460.8 0 
L 0 0 
z
" style="fill:#ffffff;"/>
  </g>
  <g id="axes_1">
   <g id="patch_2">
    <path d="M 57.6 307.584 
L 414.72 307.584 
L 414.72 41.472 
L 57.6 41.472 
z
" style="fill:#ffffff;"/>
   </g>
   <g id="matplotlib.axis_1">
    <g id="xtick_1">
     <g id="line2d_1">
      <defs>
       <path d="M 0 0 
L 0 3.5 
" id="m72736649ed" style="stroke:#000000;stroke-width:0.8;"/>
      </defs>
      <g>
       <use style="stroke:#000000;stroke-width:0.8;" x="73.832727" xlink:href="#m72736649ed" y="307.584"/>
      </g>
     </g>
     <g id="text_1">
      <!-- 0 -->
      <defs>
       <path d="M 31.78125 66.40625 
Q 24.171875 66.40625 20.328125 58.90625 
Q 16.5 51.421875 16.5 36.375 
Q 16.5 21.390625 20.328125 13.890625 
Q 24.171875 6.390625 31.78125 6.390625 
Q 39.453125 6.390625 43.28125 13.890625 
Q 47.125 21.390625 47.125 36.375 
Q 47.125 51.421875 43.28125 58.90625 
Q 39.453125 66.40625 31.78125 66.40625 
z
M 31.78125 74.21875 
Q 44.046875 74.21875 50.515625 64.515625 
Q 56.984375 54.828125 56.984375 36.375 
Q 56.984375 17.96875 50.515625 8.265625 
Q 44.046875 -1.421875 31.78125 -1.421875 
Q 19.53125 -1.421875 13.0625 8.265625 
Q 6.59375 17.96875 6.59375 36.375 
Q 6.59375 54.828125 13.0625 64.515625 
Q 19.53125 74.21875 31.78125 74.21875 
z
" id="DejaVuSans-48"/>
      </defs>
      <g transform="translate(70.651477 322.182437)scale(0.1 -0.1)">
       <use xlink:href="#DejaVuSans-48"/>
      </g>
     </g>
    </g>
    <g id="xtick_2">
     <g id="line2d_2">
      <g>
       <use style="stroke:#000000;stroke-width:0.8;" x="113.864114" xlink:href="#m72736649ed" y="307.584"/>
      </g>
     </g>
     <g id="text_2">
      <!-- 1 -->
      <defs>
       <path d="M 12.40625 8.296875 
L 28.515625 8.296875 
L 28.515625 63.921875 
L 10.984375 60.40625 
L 10.984375 69.390625 
L 28.421875 72.90625 
L 38.28125 72.90625 
L 38.28125 8.296875 
L 54.390625 8.296875 
L 54.390625 0 
L 12.40625 0 
z
" id="DejaVuSans-49"/>
      </defs>
      <g transform="translate(110.682864 322.182437)scale(0.1 -0.1)">
       <use xlink:href="#DejaVuSans-49"/>
      </g>
     </g>
    </g>
    <g id="xtick_3">
     <g id="line2d_3">
      <g>
       <use style="stroke:#000000;stroke-width:0.8;" x="153.895501" xlink:href="#m72736649ed" y="307.584"/>
      </g>
     </g>
     <g id="text_3">
      <!-- 2 -->
      <defs>
       <path d="M 19.1875 8.296875 
L 53.609375 8.296875 
L 53.609375 0 
L 7.328125 0 
L 7.328125 8.296875 
Q 12.9375 14.109375 22.625 23.890625 
Q 32.328125 33.6875 34.8125 36.53125 
Q 39.546875 41.84375 41.421875 45.53125 
Q 43.3125 49.21875 43.3125 52.78125 
Q 43.3125 58.59375 39.234375 62.25 
Q 35.15625 65.921875 28.609375 65.921875 
Q 23.96875 65.921875 18.8125 64.3125 
Q 13.671875 62.703125 7.8125 59.421875 
L 7.8125 69.390625 
Q 13.765625 71.78125 18.9375 73 
Q 24.125 74.21875 28.421875 74.21875 
Q 39.75 74.21875 46.484375 68.546875 
Q 53.21875 62.890625 53.21875 53.421875 
Q 53.21875 48.921875 51.53125 44.890625 
Q 49.859375 40.875 45.40625 35.40625 
Q 44.1875 33.984375 37.640625 27.21875 
Q 31.109375 20.453125 19.1875 8.296875 
z
" id="DejaVuSans-50"/>
      </defs>
      <g transform="translate(150.714251 322.182437)scale(0.1 -0.1)">
       <use xlink:href="#DejaVuSans-50"/>
      </g>
     </g>
    </g>
    <g id="xtick_4">
     <g id="line2d_4">
      <g>
       <use style="stroke:#000000;stroke-width:0.8;" x="193.926887" xlink:href="#m72736649ed" y="307.584"/>
      </g>
     </g>
     <g id="text_4">
      <!-- 3 -->
      <defs>
       <path d="M 40.578125 39.3125 
Q 47.65625 37.796875 51.625 33 
Q 55.609375 28.21875 55.609375 21.1875 
Q 55.609375 10.40625 48.1875 4.484375 
Q 40.765625 -1.421875 27.09375 -1.421875 
Q 22.515625 -1.421875 17.65625 -0.515625 
Q 12.796875 0.390625 7.625 2.203125 
L 7.625 11.71875 
Q 11.71875 9.328125 16.59375 8.109375 
Q 21.484375 6.890625 26.8125 6.890625 
Q 36.078125 6.890625 40.9375 10.546875 
Q 45.796875 14.203125 45.796875 21.1875 
Q 45.796875 27.640625 41.28125 31.265625 
Q 36.765625 34.90625 28.71875 34.90625 
L 20.21875 34.90625 
L 20.21875 43.015625 
L 29.109375 43.015625 
Q 36.375 43.015625 40.234375 45.921875 
Q 44.09375 48.828125 44.09375 54.296875 
Q 44.09375 59.90625 40.109375 62.90625 
Q 36.140625 65.921875 28.71875 65.921875 
Q 24.65625 65.921875 20.015625 65.03125 
Q 15.375 64.15625 9.8125 62.3125 
L 9.8125 71.09375 
Q 15.4375 72.65625 20.34375 73.4375 
Q 25.25 74.21875 29.59375 74.21875 
Q 40.828125 74.21875 47.359375 69.109375 
Q 53.90625 64.015625 53.90625 55.328125 
Q 53.90625 49.265625 50.4375 45.09375 
Q 46.96875 40.921875 40.578125 39.3125 
z
" id="DejaVuSans-51"/>
      </defs>
      <g transform="translate(190.745637 322.182437)scale(0.1 -0.1)">
       <use xlink:href="#DejaVuSans-51"/>
      </g>
     </g>
    </g>
    <g id="xtick_5">
     <g id="line2d_5">
      <g>
       <use style="stroke:#000000;stroke-width:0.8;" x="233.958274" xlink:href="#m72736649ed" y="307.584"/>
      </g>
     </g>
     <g id="text_5">
      <!-- 4 -->
      <defs>
       <path d="M 37.796875 64.3125 
L 12.890625 25.390625 
L 37.796875 25.390625 
z
M 35.203125 72.90625 
L 47.609375 72.90625 
L 47.609375 25.390625 
L 58.015625 25.390625 
L 58.015625 17.1875 
L 47.609375 17.1875 
L 47.609375 0 
L 37.796875 0 
L 37.796875 17.1875 
L 4.890625 17.1875 
L 4.890625 26.703125 
z
" id="DejaVuSans-52"/>
      </defs>
      <g transform="translate(230.777024 322.182437)scale(0.1 -0.1)">
       <use xlink:href="#DejaVuSans-52"/>
      </g>
     </g>
    </g>
    <g id="xtick_6">
     <g id="line2d_6">
      <g>
       <use style="stroke:#000000;stroke-width:0.8;" x="273.98966" xlink:href="#m72736649ed" y="307.584"/>
      </g>
     </g>
     <g id="text_6">
      <!-- 5 -->
      <defs>
       <path d="M 10.796875 72.90625 
L 49.515625 72.90625 
L 49.515625 64.59375 
L 19.828125 64.59375 
L 19.828125 46.734375 
Q 21.96875 47.46875 24.109375 47.828125 
Q 26.265625 48.1875 28.421875 48.1875 
Q 40.625 48.1875 47.75 41.5 
Q 54.890625 34.8125 54.890625 23.390625 
Q 54.890625 11.625 47.5625 5.09375 
Q 40.234375 -1.421875 26.90625 -1.421875 
Q 22.3125 -1.421875 17.546875 -0.640625 
Q 12.796875 0.140625 7.71875 1.703125 
L 7.71875 11.625 
Q 12.109375 9.234375 16.796875 8.0625 
Q 21.484375 6.890625 26.703125 6.890625 
Q 35.15625 6.890625 40.078125 11.328125 
Q 45.015625 15.765625 45.015625 23.390625 
Q 45.015625 31 40.078125 35.4375 
Q 35.15625 39.890625 26.703125 39.890625 
Q 22.75 39.890625 18.8125 39.015625 
Q 14.890625 38.140625 10.796875 36.28125 
z
" id="DejaVuSans-53"/>
      </defs>
      <g transform="translate(270.80841 322.182437)scale(0.1 -0.1)">
       <use xlink:href="#DejaVuSans-53"/>
      </g>
     </g>
    </g>
    <g id="xtick_7">
     <g id="line2d_7">
      <g>
       <use style="stroke:#000000;stroke-width:0.8;" x="314.021047" xlink:href="#m72736649ed" y="307.584"/>
      </g>
     </g>
     <g id="text_7">
      <!-- 6 -->
      <defs>
       <path d="M 33.015625 40.375 
Q 26.375 40.375 22.484375 35.828125 
Q 18.609375 31.296875 18.609375 23.390625 
Q 18.609375 15.53125 22.484375 10.953125 
Q 26.375 6.390625 33.015625 6.390625 
Q 39.65625 6.390625 43.53125 10.953125 
Q 47.40625 15.53125 47.40625 23.390625 
Q 47.40625 31.296875 43.53125 35.828125 
Q 39.65625 40.375 33.015625 40.375 
z
M 52.59375 71.296875 
L 52.59375 62.3125 
Q 48.875 64.0625 45.09375 64.984375 
Q 41.3125 65.921875 37.59375 65.921875 
Q 27.828125 65.921875 22.671875 59.328125 
Q 17.53125 52.734375 16.796875 39.40625 
Q 19.671875 43.65625 24.015625 45.921875 
Q 28.375 48.1875 33.59375 48.1875 
Q 44.578125 48.1875 50.953125 41.515625 
Q 57.328125 34.859375 57.328125 23.390625 
Q 57.328125 12.15625 50.6875 5.359375 
Q 44.046875 -1.421875 33.015625 -1.421875 
Q 20.359375 -1.421875 13.671875 8.265625 
Q 6.984375 17.96875 6.984375 36.375 
Q 6.984375 53.65625 15.1875 63.9375 
Q 23.390625 74.21875 37.203125 74.21875 
Q 40.921875 74.21875 44.703125 73.484375 
Q 48.484375 72.75 52.59375 71.296875 
z
" id="DejaVuSans-54"/>
      </defs>
      <g transform="translate(310.839797 322.182437)scale(0.1 -0.1)">
       <use xlink:href="#DejaVuSans-54"/>
      </g>
     </g>
    </g>
    <g id="xtick_8">
     <g id="line2d_8">
      <g>
       <use style="stroke:#000000;stroke-width:0.8;" x="354.052434" xlink:href="#m72736649ed" y="307.584"/>
      </g>
     </g>
     <g id="text_8">
      <!-- 7 -->
      <defs>
       <path d="M 8.203125 72.90625 
L 55.078125 72.90625 
L 55.078125 68.703125 
L 28.609375 0 
L 18.3125 0 
L 43.21875 64.59375 
L 8.203125 64.59375 
z
" id="DejaVuSans-55"/>
      </defs>
      <g transform="translate(350.871184 322.182437)scale(0.1 -0.1)">
       <use xlink:href="#DejaVuSans-55"/>
      </g>
     </g>
    </g>
    <g id="xtick_9">
     <g id="line2d_9">
      <g>
       <use style="stroke:#000000;stroke-width:0.8;" x="394.08382" xlink:href="#m72736649ed" y="307.584"/>
      </g>
     </g>
     <g id="text_9">
      <!-- 8 -->
      <defs>
       <path d="M 31.78125 34.625 
Q 24.75 34.625 20.71875 30.859375 
Q 16.703125 27.09375 16.703125 20.515625 
Q 16.703125 13.921875 20.71875 10.15625 
Q 24.75 6.390625 31.78125 6.390625 
Q 38.8125 6.390625 42.859375 10.171875 
Q 46.921875 13.96875 46.921875 20.515625 
Q 46.921875 27.09375 42.890625 30.859375 
Q 38.875 34.625 31.78125 34.625 
z
M 21.921875 38.8125 
Q 15.578125 40.375 12.03125 44.71875 
Q 8.5 49.078125 8.5 55.328125 
Q 8.5 64.0625 14.71875 69.140625 
Q 20.953125 74.21875 31.78125 74.21875 
Q 42.671875 74.21875 48.875 69.140625 
Q 55.078125 64.0625 55.078125 55.328125 
Q 55.078125 49.078125 51.53125 44.71875 
Q 48 40.375 41.703125 38.8125 
Q 48.828125 37.15625 52.796875 32.3125 
Q 56.78125 27.484375 56.78125 20.515625 
Q 56.78125 9.90625 50.3125 4.234375 
Q 43.84375 -1.421875 31.78125 -1.421875 
Q 19.734375 -1.421875 13.25 4.234375 
Q 6.78125 9.90625 6.78125 20.515625 
Q 6.78125 27.484375 10.78125 32.3125 
Q 14.796875 37.15625 21.921875 38.8125 
z
M 18.3125 54.390625 
Q 18.3125 48.734375 21.84375 45.5625 
Q 25.390625 42.390625 31.78125 42.390625 
Q 38.140625 42.390625 41.71875 45.5625 
Q 45.3125 48.734375 45.3125 54.390625 
Q 45.3125 60.0625 41.71875 63.234375 
Q 38.140625 66.40625 31.78125 66.40625 
Q 25.390625 66.40625 21.84375 63.234375 
Q 18.3125 60.0625 18.3125 54.390625 
z
" id="DejaVuSans-56"/>
      </defs>
      <g transform="translate(390.90257 322.182437)scale(0.1 -0.1)">
       <use xlink:href="#DejaVuSans-56"/>
      </g>
     </g>
    </g>
   </g>
   <g id="matplotlib.axis_2">
    <g id="ytick_1">
     <g id="line2d_10">
      <defs>
       <path d="M 0 0 
L -3.5 0 
" id="m3d09aa5ce8" style="stroke:#000000;stroke-width:0.8;"/>
      </defs>
      <g>
       <use style="stroke:#000000;stroke-width:0.8;" x="57.6" xlink:href="#m3d09aa5ce8" y="303.073933"/>
      </g>
     </g>
     <g id="text_10">
      <!-- −0.100 -->
      <defs>
       <path d="M 10.59375 35.5 
L 73.1875 35.5 
L 73.1875 27.203125 
L 10.59375 27.203125 
z
" id="DejaVuSans-8722"/>
       <path d="M 10.6875 12.40625 
L 21 12.40625 
L 21 0 
L 10.6875 0 
z
" id="DejaVuSans-46"/>
      </defs>
      <g transform="translate(13.592188 306.873151)scale(0.1 -0.1)">
       <use xlink:href="#DejaVuSans-8722"/>
       <use x="83.789062" xlink:href="#DejaVuSans-48"/>
       <use x="147.412109" xlink:href="#DejaVuSans-46"/>
       <use x="179.199219" xlink:href="#DejaVuSans-49"/>
       <use x="242.822266" xlink:href="#DejaVuSans-48"/>
       <use x="306.445312" xlink:href="#DejaVuSans-48"/>
      </g>
     </g>
    </g>
    <g id="ytick_2">
     <g id="line2d_11">
      <g>
       <use style="stroke:#000000;stroke-width:0.8;" x="57.6" xlink:href="#m3d09aa5ce8" y="270.937449"/>
      </g>
     </g>
     <g id="text_11">
      <!-- −0.075 -->
      <g transform="translate(13.592188 274.736668)scale(0.1 -0.1)">
       <use xlink:href="#DejaVuSans-8722"/>
       <use x="83.789062" xlink:href="#DejaVuSans-48"/>
       <use x="147.412109" xlink:href="#DejaVuSans-46"/>
       <use x="179.199219" xlink:href="#DejaVuSans-48"/>
       <use x="242.822266" xlink:href="#DejaVuSans-55"/>
       <use x="306.445312" xlink:href="#DejaVuSans-53"/>
      </g>
     </g>
    </g>
    <g id="ytick_3">
     <g id="line2d_12">
      <g>
       <use style="stroke:#000000;stroke-width:0.8;" x="57.6" xlink:href="#m3d09aa5ce8" y="238.800966"/>
      </g>
     </g>
     <g id="text_12">
      <!-- −0.050 -->
      <g transform="translate(13.592188 242.600185)scale(0.1 -0.1)">
       <use xlink:href="#DejaVuSans-8722"/>
       <use x="83.789062" xlink:href="#DejaVuSans-48"/>
       <use x="147.412109" xlink:href="#DejaVuSans-46"/>
       <use x="179.199219" xlink:href="#DejaVuSans-48"/>
       <use x="242.822266" xlink:href="#DejaVuSans-53"/>
       <use x="306.445312" xlink:href="#DejaVuSans-48"/>
      </g>
     </g>
    </g>
    <g id="ytick_4">
     <g id="line2d_13">
      <g>
       <use style="stroke:#000000;stroke-width:0.8;" x="57.6" xlink:href="#m3d09aa5ce8" y="206.664483"/>
      </g>
     </g>
     <g id="text_13">
      <!-- −0.025 -->
      <g transform="translate(13.592188 210.463702)scale(0.1 -0.1)">
       <use xlink:href="#DejaVuSans-8722"/>
       <use x="83.789062" xlink:href="#DejaVuSans-48"/>
       <use x="147.412109" xlink:href="#DejaVuSans-46"/>
       <use x="179.199219" xlink:href="#DejaVuSans-48"/>
       <use x="242.822266" xlink:href="#DejaVuSans-50"/>
       <use x="306.445312" xlink:href="#DejaVuSans-53"/>
      </g>
     </g>
    </g>
    <g id="ytick_5">
     <g id="line2d_14">
      <g>
       <use style="stroke:#000000;stroke-width:0.8;" x="57.6" xlink:href="#m3d09aa5ce8" y="174.528"/>
      </g>
     </g>
     <g id="text_14">
      <!-- 0.000 -->
      <g transform="translate(21.971875 178.327219)scale(0.1 -0.1)">
       <use xlink:href="#DejaVuSans-48"/>
       <use x="63.623047" xlink:href="#DejaVuSans-46"/>
       <use x="95.410156" xlink:href="#DejaVuSans-48"/>
       <use x="159.033203" xlink:href="#DejaVuSans-48"/>
       <use x="222.65625" xlink:href="#DejaVuSans-48"/>
      </g>
     </g>
    </g>
    <g id="ytick_6">
     <g id="line2d_15">
      <g>
       <use style="stroke:#000000;stroke-width:0.8;" x="57.6" xlink:href="#m3d09aa5ce8" y="142.391517"/>
      </g>
     </g>
     <g id="text_15">
      <!-- 0.025 -->
      <g transform="translate(21.971875 146.190736)scale(0.1 -0.1)">
       <use xlink:href="#DejaVuSans-48"/>
       <use x="63.623047" xlink:href="#DejaVuSans-46"/>
       <use x="95.410156" xlink:href="#DejaVuSans-48"/>
       <use x="159.033203" xlink:href="#DejaVuSans-50"/>
       <use x="222.65625" xlink:href="#DejaVuSans-53"/>
      </g>
     </g>
    </g>
    <g id="ytick_7">
     <g id="line2d_16">
      <g>
       <use style="stroke:#000000;stroke-width:0.8;" x="57.6" xlink:href="#m3d09aa5ce8" y="110.255034"/>
      </g>
     </g>
     <g id="text_16">
      <!-- 0.050 -->
      <g transform="translate(21.971875 114.054252)scale(0.1 -0.1)">
       <use xlink:href="#DejaVuSans-48"/>
       <use x="63.623047" xlink:href="#DejaVuSans-46"/>
       <use x="95.410156" xlink:href="#DejaVuSans-48"/>
       <use x="159.033203" xlink:href="#DejaVuSans-53"/>
       <use x="222.65625" xlink:href="#DejaVuSans-48"/>
      </g>
     </g>
    </g>
    <g id="ytick_8">
     <g id="line2d_17">
      <g>
       <use style="stroke:#000000;stroke-width:0.8;" x="57.6" xlink:href="#m3d09aa5ce8" y="78.118551"/>
      </g>
     </g>
     <g id="text_17">
      <!-- 0.075 -->
      <g transform="translate(21.971875 81.917769)scale(0.1 -0.1)">
       <use xlink:href="#DejaVuSans-48"/>
       <use x="63.623047" xlink:href="#DejaVuSans-46"/>
       <use x="95.410156" xlink:href="#DejaVuSans-48"/>
       <use x="159.033203" xlink:href="#DejaVuSans-55"/>
       <use x="222.65625" xlink:href="#DejaVuSans-53"/>
      </g>
     </g>
    </g>
    <g id="ytick_9">
     <g id="line2d_18">
      <g>
       <use style="stroke:#000000;stroke-width:0.8;" x="57.6" xlink:href="#m3d09aa5ce8" y="45.982067"/>
      </g>
     </g>
     <g id="text_18">
      <!-- 0.100 -->
      <g transform="translate(21.971875 49.781286)scale(0.1 -0.1)">
       <use xlink:href="#DejaVuSans-48"/>
       <use x="63.623047" xlink:href="#DejaVuSans-46"/>
       <use x="95.410156" xlink:href="#DejaVuSans-49"/>
       <use x="159.033203" xlink:href="#DejaVuSans-48"/>
       <use x="222.65625" xlink:href="#DejaVuSans-48"/>
      </g>
     </g>
    </g>
   </g>
   <g id="line2d_19">
    <path clip-path="url(#p24fafadb46)" d="M 73.832727 156.429247 
L 73.992853 73.778274 
L 74.072916 82.827651 
L 74.393167 275.277726 
L 74.473229 266.529995 
L 74.793481 74.07992 
L 74.873543 82.526005 
L 75.193794 275.277726 
L 75.273857 266.831641 
L 75.594108 73.778274 
L 75.674171 82.224359 
L 75.994422 274.97608 
L 76.074485 266.831641 
L 76.394736 74.07992 
L 76.474799 82.224359 
L 76.79505 274.97608 
L 76.875113 266.831641 
L 77.195364 74.07992 
L 77.275427 82.224359 
L 77.595678 275.277726 
L 77.67574 266.831641 
L 77.995991 73.778274 
L 78.076054 82.224359 
L 78.396305 274.97608 
L 78.476368 267.133287 
L 78.796619 74.07992 
L 78.876682 81.922713 
L 79.196933 274.97608 
L 79.276996 267.133287 
L 79.597247 74.07992 
L 79.67731 81.922713 
L 79.997561 274.97608 
L 80.077624 267.434933 
L 80.397875 74.07992 
L 80.477937 81.621067 
L 80.798189 277.389247 
L 80.878251 268.641516 
L 81.198502 71.063461 
L 81.278565 81.319421 
L 81.598816 275.881017 
L 81.678879 267.133287 
L 81.99913 72.873337 
L 82.079193 82.224359 
L 82.399444 275.881017 
L 82.479507 266.228349 
L 82.799758 73.174983 
L 82.879821 82.827651 
L 83.200072 275.277726 
L 83.280135 265.926703 
L 83.600386 73.476628 
L 83.680448 83.129297 
L 84.000699 275.579372 
L 84.080762 266.228349 
L 84.401013 73.174983 
L 84.481076 83.129297 
L 84.801327 275.881017 
L 84.88139 266.228349 
L 85.201641 73.476628 
L 85.281704 83.129297 
L 85.601955 275.579372 
L 85.682018 265.926703 
L 86.002269 72.571691 
L 86.082332 79.2079 
L 86.402583 279.500768 
L 86.482645 271.657975 
L 86.802897 62.617377 
L 86.882959 85.84411 
L 87.20321 294.281416 
L 87.363336 201.374484 
L 87.603524 54.472938 
L 87.76365 147.37987 
L 88.003838 294.281416 
L 88.163964 199.866254 
L 88.404152 53.568 
L 88.564278 149.189746 
L 88.804466 295.488 
L 88.964591 199.262963 
L 89.20478 53.869646 
L 89.364905 150.697975 
L 89.605094 295.186354 
L 89.765219 198.358025 
L 90.005407 53.869646 
L 90.165533 151.904559 
L 90.405721 295.488 
L 90.565847 197.453087 
L 90.806035 53.869646 
L 90.966161 152.809496 
L 91.206349 294.884708 
L 91.366475 195.643212 
L 91.606663 54.171292 
L 91.766788 153.412788 
L 92.006977 294.583062 
L 92.167102 194.738274 
L 92.407291 54.171292 
L 92.567416 154.01608 
L 92.807605 294.583062 
L 92.96773 193.833337 
L 93.207918 54.774584 
L 93.368044 154.921017 
L 93.608232 293.979771 
L 93.768358 193.230045 
L 94.008546 55.377875 
L 94.168672 156.127601 
L 94.40886 293.376479 
L 94.568986 192.626753 
L 94.809174 55.981167 
L 94.969299 157.032539 
L 95.209488 293.376479 
L 95.369613 191.42017 
L 95.609802 56.282813 
L 95.769927 158.540768 
L 96.010115 293.074833 
L 96.170241 190.816878 
L 96.410429 56.584459 
L 96.570555 159.14406 
L 96.810743 292.471541 
L 96.970869 189.610294 
L 97.211057 56.886105 
L 97.371183 160.048998 
L 97.611371 292.169895 
L 97.851559 124.153137 
L 98.011685 56.886105 
L 98.251873 224.902863 
L 98.411999 292.169895 
L 98.652187 123.549845 
L 98.812313 56.886105 
L 99.052501 225.8078 
L 99.212626 291.868249 
L 99.452815 122.644908 
L 99.61294 57.489397 
L 99.853129 226.109446 
L 100.013254 291.264958 
L 100.253442 122.343262 
L 100.413568 58.092688 
L 100.653756 226.712738 
L 100.813882 290.963312 
L 101.05407 122.343262 
L 101.214196 58.092688 
L 101.454384 226.411092 
L 101.61451 290.661666 
L 101.854698 122.041616 
L 102.014823 58.69598 
L 102.255012 227.31603 
L 102.415137 290.36002 
L 102.655326 121.438324 
L 102.815451 59.299272 
L 103.05564 227.919322 
L 103.215765 290.058374 
L 103.455953 121.438324 
L 103.616079 59.600918 
L 103.856267 227.919322 
L 104.016393 290.058374 
L 104.416707 60.204209 
L 104.656895 228.522613 
L 104.817021 289.455082 
L 105.217334 59.600918 
L 105.617648 289.455082 
L 106.017962 59.902564 
L 106.418276 289.153436 
L 106.81859 59.902564 
L 107.218904 288.550145 
L 107.619218 60.807501 
L 108.019531 288.550145 
L 108.419845 60.807501 
L 108.820159 288.248499 
L 109.220473 61.410793 
L 109.620787 287.946853 
L 110.021101 61.410793 
L 110.421415 287.645207 
L 110.821729 69.856878 
L 110.981854 167.590145 
L 111.222042 276.785955 
L 111.382168 179.65598 
L 111.622356 71.063461 
L 111.782482 168.796728 
L 112.02267 277.690893 
L 112.182796 179.957626 
L 112.422984 71.365107 
L 112.58311 169.40002 
L 112.823298 277.690893 
L 112.983423 179.65598 
L 113.223612 71.666753 
L 113.383737 169.701666 
L 113.623926 277.690893 
L 113.784051 179.052688 
L 114.024239 71.666753 
L 114.184365 170.003312 
L 114.424553 277.690893 
L 114.584679 179.052688 
L 114.824867 71.666753 
L 114.984993 170.304958 
L 115.225181 277.690893 
L 115.385307 178.449397 
L 115.625495 71.365107 
L 115.78562 170.908249 
L 116.025809 277.992539 
L 116.185934 178.449397 
L 116.426123 71.666753 
L 116.586248 170.908249 
L 116.826436 277.690893 
L 116.986562 177.846105 
L 117.22675 71.365107 
L 117.386876 171.511541 
L 117.627064 277.992539 
L 117.867253 119.628449 
L 118.027378 71.365107 
L 118.187504 171.511541 
L 118.427692 277.690893 
L 118.66788 119.025157 
L 118.828006 71.063461 
L 119.068194 230.030843 
L 119.22832 277.690893 
L 119.388445 176.941167 
L 119.628634 71.365107 
L 119.788759 172.114833 
L 120.028947 277.690893 
L 120.189073 176.941167 
L 120.429261 71.666753 
L 120.589387 172.114833 
L 120.829575 278.294185 
L 121.069763 118.421865 
L 121.229889 70.761815 
L 121.470077 230.634135 
L 121.630203 278.294185 
L 121.870391 118.421865 
L 122.030517 70.761815 
L 122.270705 230.634135 
L 122.430831 277.992539 
L 122.671019 118.421865 
L 122.831144 71.063461 
L 122.99127 171.813187 
L 123.231458 278.294185 
L 123.471647 118.421865 
L 123.631772 70.46017 
L 123.871961 230.332489 
L 124.032086 278.59583 
L 124.272274 118.723511 
L 124.4324 70.46017 
L 124.672588 215.853486 
L 124.832714 281.310643 
L 124.992839 193.531691 
L 125.233028 67.443711 
L 125.393153 155.524309 
L 125.633342 281.612289 
L 125.793467 193.833337 
L 126.033655 67.443711 
L 126.193781 155.222663 
L 126.433969 281.612289 
L 126.514032 255.972389 
L 126.834283 67.745357 
L 126.914346 92.781965 
L 127.234597 281.310643 
L 127.31466 256.274035 
L 127.634911 67.745357 
L 127.714974 92.781965 
L 128.035225 281.612289 
L 128.115288 256.575681 
L 128.435539 67.443711 
L 128.515601 92.480319 
L 128.835852 281.310643 
L 128.915915 256.877327 
L 129.236166 67.443711 
L 129.316229 92.178673 
L 129.63648 281.310643 
L 129.716543 257.178973 
L 130.036794 67.745357 
L 130.116857 91.877027 
L 130.437108 281.310643 
L 130.517171 257.782264 
L 130.837422 67.745357 
L 130.917485 91.575382 
L 131.237736 281.310643 
L 131.317798 258.08391 
L 131.63805 67.745357 
L 131.718112 90.670444 
L 132.038363 281.310643 
L 132.118426 258.08391 
L 132.438677 67.745357 
L 132.51874 90.670444 
L 132.838991 281.310643 
L 132.919054 258.988848 
L 133.239305 67.745357 
L 133.319368 90.067152 
L 133.639619 281.008998 
L 133.719682 258.988848 
L 134.039933 68.047002 
L 134.119996 89.765506 
L 134.440247 281.310643 
L 134.520309 259.290494 
L 134.84056 68.047002 
L 134.920623 89.46386 
L 135.240874 281.310643 
L 135.320937 260.195431 
L 135.641188 68.047002 
L 135.721251 89.162214 
L 136.041502 281.008998 
L 136.121565 260.195431 
L 136.441816 67.745357 
L 136.521879 88.860569 
L 136.84213 281.310643 
L 136.922193 260.798723 
L 137.242444 68.047002 
L 137.322506 88.558923 
L 137.642758 281.612289 
L 137.72282 260.798723 
L 138.043071 68.047002 
L 138.123134 88.257277 
L 138.443385 281.008998 
L 138.523448 261.100369 
L 138.843699 68.047002 
L 138.923762 87.955631 
L 139.244013 281.008998 
L 139.324076 261.100369 
L 139.644327 67.745357 
L 139.72439 87.955631 
L 140.044641 281.310643 
L 140.124704 261.402015 
L 140.444955 67.745357 
L 140.525017 87.955631 
L 140.845268 281.310643 
L 140.925331 261.703661 
L 141.245582 67.745357 
L 141.325645 87.653985 
L 141.645896 281.310643 
L 141.725959 261.703661 
L 142.04621 67.745357 
L 142.126273 87.653985 
L 142.446524 281.612289 
L 142.526587 261.703661 
L 142.846838 68.047002 
L 142.926901 87.653985 
L 143.247152 281.612289 
L 143.327214 261.703661 
L 143.647466 68.047002 
L 143.727528 87.352339 
L 144.047779 281.612289 
L 144.127842 261.703661 
L 144.448093 67.443711 
L 144.528156 87.653985 
L 144.848407 281.310643 
L 144.92847 261.703661 
L 145.248721 67.745357 
L 145.328784 87.352339 
L 145.649035 281.612289 
L 145.729098 261.100369 
L 146.049349 67.443711 
L 146.129412 87.653985 
L 146.449663 281.612289 
L 146.529725 261.402015 
L 146.849976 67.443711 
L 146.930039 87.653985 
L 147.25029 281.913935 
L 147.330353 261.402015 
L 147.650604 67.443711 
L 147.730667 87.955631 
L 148.050918 281.913935 
L 148.130981 261.100369 
L 148.451232 67.443711 
L 148.531295 87.955631 
L 148.851546 281.913935 
L 148.931609 261.100369 
L 149.25186 67.142065 
L 149.331922 87.955631 
L 149.652174 282.215581 
L 149.732236 261.100369 
L 150.052487 67.142065 
L 150.13255 87.955631 
L 150.452801 282.215581 
L 150.532864 261.402015 
L 150.853115 67.142065 
L 150.933178 87.955631 
L 151.253429 282.215581 
L 151.333492 261.100369 
L 151.653743 67.142065 
L 151.733806 87.955631 
L 152.054057 281.913935 
L 152.134119 260.798723 
L 152.454371 66.840419 
L 152.534433 88.257277 
L 152.854684 282.215581 
L 152.934747 261.100369 
L 153.254998 67.142065 
L 153.335061 88.257277 
L 153.655312 282.215581 
L 153.735375 261.100369 
L 154.055626 66.840419 
L 154.135689 87.955631 
L 154.45594 282.215581 
L 154.536003 261.100369 
L 154.856254 67.142065 
L 154.936317 87.653985 
L 155.256568 282.215581 
L 155.33663 261.402015 
L 155.656882 67.142065 
L 155.736944 87.955631 
L 156.057195 281.913935 
L 156.137258 261.402015 
L 156.457509 67.142065 
L 156.537572 87.653985 
L 156.857823 281.913935 
L 156.937886 261.402015 
L 157.258137 67.142065 
L 157.3382 87.352339 
L 157.658451 281.913935 
L 157.738514 261.703661 
L 158.058765 67.443711 
L 158.138827 87.352339 
L 158.459079 282.215581 
L 158.539141 261.703661 
L 158.859392 67.443711 
L 158.939455 87.050693 
L 159.259706 281.612289 
L 159.339769 262.005307 
L 159.66002 67.443711 
L 159.740083 86.749047 
L 160.060334 281.612289 
L 160.140397 262.306953 
L 160.460648 67.443711 
L 160.540711 86.447401 
L 160.860962 281.612289 
L 160.941025 262.608599 
L 161.261276 67.443711 
L 161.341338 86.447401 
L 161.66159 281.612289 
L 161.741652 262.608599 
L 162.061903 67.745357 
L 162.141966 86.447401 
L 162.462217 281.310643 
L 162.54228 262.910244 
L 162.862531 67.443711 
L 162.942594 86.145756 
L 163.262845 281.612289 
L 163.342908 262.910244 
L 163.663159 67.443711 
L 163.743222 85.240818 
L 164.063473 281.310643 
L 164.143535 263.513536 
L 164.463787 67.745357 
L 164.543849 85.542464 
L 164.8641 281.612289 
L 164.944163 263.513536 
L 165.264414 67.443711 
L 165.344477 85.240818 
L 165.664728 281.612289 
L 165.744791 263.815182 
L 166.065042 67.443711 
L 166.145105 84.939172 
L 166.465356 281.612289 
L 166.545419 264.418474 
L 166.86567 67.745357 
L 166.945733 84.939172 
L 167.265984 281.612289 
L 167.346046 264.116828 
L 167.666298 67.745357 
L 167.74636 84.637526 
L 168.066611 281.310643 
L 168.146674 264.72012 
L 168.466925 67.745357 
L 168.546988 84.33588 
L 168.867239 281.310643 
L 168.947302 264.72012 
L 169.267553 67.443711 
L 169.347616 84.33588 
L 169.667867 281.310643 
L 169.74793 264.72012 
L 170.068181 67.443711 
L 170.148243 84.33588 
L 170.468495 281.612289 
L 170.548557 265.021766 
L 170.868808 67.745357 
L 170.948871 84.034234 
L 171.269122 281.612289 
L 171.349185 265.021766 
L 171.669436 67.443711 
L 171.749499 84.034234 
L 172.06975 281.310643 
L 172.149813 265.021766 
L 172.470064 67.443711 
L 172.550127 84.034234 
L 172.870378 281.612289 
L 172.950441 265.323411 
L 173.270692 67.443711 
L 173.350754 83.732589 
L 173.671005 281.612289 
L 173.751068 265.021766 
L 174.071319 67.443711 
L 174.151382 84.034234 
L 174.471633 281.913935 
L 174.551696 265.021766 
L 174.871947 67.142065 
L 174.95201 83.732589 
L 175.272261 281.913935 
L 175.352324 265.323411 
L 175.672575 67.142065 
L 175.752638 83.732589 
L 176.072889 281.612289 
L 176.152951 265.323411 
L 176.473203 67.443711 
L 176.553265 83.732589 
L 176.873516 281.612289 
L 176.953579 265.625057 
L 177.27383 67.142065 
L 177.353893 83.430943 
L 177.674144 281.913935 
L 177.754207 265.323411 
L 178.074458 67.142065 
L 178.154521 83.732589 
L 178.474772 281.913935 
L 178.554835 265.323411 
L 178.875086 67.142065 
L 178.955149 83.732589 
L 179.2754 281.913935 
L 179.355462 265.625057 
L 179.675713 66.840419 
L 179.755776 83.430943 
L 180.076027 281.612289 
L 180.15609 265.323411 
L 180.476341 67.142065 
L 180.556404 83.430943 
L 180.876655 281.913935 
L 180.956718 265.625057 
L 181.276969 67.142065 
L 181.357032 83.732589 
L 181.677283 281.913935 
L 181.757346 265.625057 
L 182.077597 66.538773 
L 182.157659 83.732589 
L 182.477911 281.913935 
L 182.557973 265.625057 
L 182.878224 66.840419 
L 182.958287 83.732589 
L 183.278538 281.913935 
L 183.358601 265.323411 
L 183.678852 67.142065 
L 183.758915 83.732589 
L 184.079166 281.913935 
L 184.159229 265.323411 
L 184.47948 66.538773 
L 184.559543 83.732589 
L 184.879794 282.215581 
L 184.959857 265.926703 
L 185.280108 67.142065 
L 185.36017 83.430943 
L 185.680421 281.913935 
L 185.760484 265.625057 
L 186.080735 67.142065 
L 186.160798 83.430943 
L 186.481049 281.913935 
L 186.561112 265.625057 
L 186.881363 67.142065 
L 186.961426 83.732589 
L 187.281677 281.913935 
L 187.36174 265.625057 
L 187.681991 67.142065 
L 187.762054 83.430943 
L 188.082305 281.612289 
L 188.162367 265.625057 
L 188.482619 67.443711 
L 188.562681 83.430943 
L 188.882932 281.612289 
L 188.962995 265.625057 
L 189.283246 67.142065 
L 189.363309 83.732589 
L 189.68356 281.913935 
L 189.763623 265.625057 
L 190.083874 67.142065 
L 190.163937 83.430943 
L 190.484188 281.913935 
L 190.564251 265.926703 
L 190.884502 67.443711 
L 190.964565 83.430943 
L 191.284816 281.913935 
L 191.364878 265.926703 
L 191.685129 67.443711 
L 191.765192 83.430943 
L 192.085443 281.612289 
L 192.165506 265.625057 
L 192.485757 67.443711 
L 192.56582 83.430943 
L 192.886071 281.612289 
L 192.966134 265.926703 
L 193.286385 67.443711 
L 193.366448 83.430943 
L 193.686699 281.612289 
L 193.766762 265.926703 
L 194.087013 67.443711 
L 194.167075 83.430943 
L 194.487327 281.612289 
L 194.567389 265.625057 
L 194.88764 67.443711 
L 194.967703 83.129297 
L 195.287954 281.612289 
L 195.368017 265.926703 
L 195.688268 67.142065 
L 195.768331 83.430943 
L 196.088582 281.612289 
L 196.168645 265.625057 
L 196.488896 67.745357 
L 196.568959 83.430943 
L 196.88921 281.612289 
L 196.969273 265.625057 
L 197.289524 67.142065 
L 197.369586 83.732589 
L 197.689837 281.612289 
L 197.7699 265.625057 
L 198.090151 67.443711 
L 198.170214 83.430943 
L 198.490465 281.612289 
L 198.570528 265.323411 
L 198.890779 67.443711 
L 198.970842 84.33588 
L 199.291093 281.612289 
L 199.371156 265.323411 
L 199.691407 67.142065 
L 199.77147 84.034234 
L 200.091721 281.913935 
L 200.171783 265.021766 
L 200.492035 67.142065 
L 200.572097 84.33588 
L 200.892348 282.215581 
L 200.972411 265.021766 
L 201.292662 67.443711 
L 201.372725 84.33588 
L 201.692976 281.913935 
L 201.773039 264.72012 
L 202.09329 67.142065 
L 202.173353 84.637526 
L 202.493604 281.913935 
L 202.573667 264.418474 
L 202.893918 67.142065 
L 202.97398 84.637526 
L 203.294232 282.215581 
L 203.374294 264.418474 
L 203.694545 67.142065 
L 203.774608 84.939172 
L 204.094859 281.913935 
L 204.174922 264.72012 
L 204.495173 67.142065 
L 204.575236 84.939172 
L 204.895487 282.215581 
L 204.97555 263.815182 
L 205.295801 66.840419 
L 205.375864 85.240818 
L 205.696115 282.215581 
L 205.776178 263.815182 
L 206.096429 66.840419 
L 206.176491 85.542464 
L 206.496743 282.215581 
L 206.576805 263.513536 
L 206.897056 66.840419 
L 206.977119 85.542464 
L 207.29737 281.913935 
L 207.377433 263.513536 
L 207.697684 67.142065 
L 207.777747 85.84411 
L 208.097998 282.215581 
L 208.178061 263.21189 
L 208.498312 66.840419 
L 208.578375 85.542464 
L 208.898626 282.215581 
L 208.978688 263.513536 
L 209.29894 66.840419 
L 209.379002 85.84411 
L 209.699253 281.913935 
L 209.779316 263.21189 
L 210.099567 66.840419 
L 210.17963 85.84411 
L 210.499881 281.913935 
L 210.579944 263.21189 
L 210.900195 66.840419 
L 210.980258 85.84411 
L 211.300509 282.215581 
L 211.380572 263.21189 
L 211.700823 66.840419 
L 211.780886 86.145756 
L 212.101137 282.215581 
L 212.181199 263.21189 
L 212.501451 67.142065 
L 212.581513 86.145756 
L 212.901764 281.913935 
L 212.981827 263.21189 
L 213.302078 66.840419 
L 213.382141 86.145756 
L 213.702392 282.215581 
L 213.782455 263.21189 
L 214.102706 66.840419 
L 214.182769 85.84411 
L 214.50302 281.913935 
L 214.583083 263.513536 
L 214.903334 67.142065 
L 214.983396 85.84411 
L 215.303648 281.612289 
L 215.38371 263.513536 
L 215.703961 67.142065 
L 215.784024 85.84411 
L 216.104275 281.913935 
L 216.184338 263.21189 
L 216.504589 66.840419 
L 216.584652 85.84411 
L 216.904903 281.913935 
L 216.984966 263.513536 
L 217.305217 67.142065 
L 217.38528 85.542464 
L 217.705531 281.612289 
L 217.785594 263.513536 
L 218.105845 67.443711 
L 218.185907 85.240818 
L 218.506159 281.612289 
L 218.586221 263.815182 
L 218.906472 67.443711 
L 218.986535 85.240818 
L 219.306786 281.612289 
L 219.386849 263.815182 
L 219.7071 67.443711 
L 219.787163 85.240818 
L 220.107414 281.612289 
L 220.187477 264.116828 
L 220.507728 67.443711 
L 220.587791 85.240818 
L 220.908042 281.612289 
L 220.988104 264.418474 
L 221.308356 67.745357 
L 221.388418 84.939172 
L 221.708669 281.612289 
L 221.788732 264.116828 
L 222.108983 68.047002 
L 222.189046 84.939172 
L 222.509297 281.612289 
L 222.58936 264.418474 
L 222.909611 67.443711 
L 222.989674 85.240818 
L 223.309925 281.612289 
L 223.389988 264.72012 
L 223.710239 67.443711 
L 223.790302 84.637526 
L 224.110553 281.310643 
L 224.190615 264.72012 
L 224.510866 67.745357 
L 224.590929 84.33588 
L 224.91118 281.612289 
L 224.991243 264.72012 
L 225.311494 67.443711 
L 225.391557 84.33588 
L 225.711808 281.612289 
L 225.791871 264.72012 
L 226.112122 67.745357 
L 226.192185 84.034234 
L 226.512436 281.612289 
L 226.592499 265.021766 
L 226.91275 67.443711 
L 226.992812 84.33588 
L 227.313064 281.612289 
L 227.393126 265.323411 
L 227.713377 67.443711 
L 227.79344 84.034234 
L 228.113691 281.612289 
L 228.193754 265.021766 
L 228.514005 67.443711 
L 228.594068 84.034234 
L 228.914319 281.310643 
L 228.994382 265.021766 
L 229.314633 67.443711 
L 229.394696 84.034234 
L 229.714947 281.612289 
L 229.79501 265.625057 
L 230.115261 67.443711 
L 230.195323 84.034234 
L 230.515574 281.612289 
L 230.595637 265.323411 
L 230.915888 67.443711 
L 230.995951 84.034234 
L 231.316202 281.913935 
L 231.396265 265.323411 
L 231.716516 67.142065 
L 231.796579 83.732589 
L 232.11683 281.913935 
L 232.196893 265.625057 
L 232.517144 67.443711 
L 232.597207 83.732589 
L 232.917458 281.612289 
L 232.99752 265.625057 
L 233.317772 67.142065 
L 233.397834 83.732589 
L 233.718085 281.913935 
L 233.798148 265.323411 
L 234.118399 67.443711 
L 234.198462 83.732589 
L 234.518713 281.913935 
L 234.598776 265.323411 
L 234.919027 67.142065 
L 234.99909 83.732589 
L 235.319341 281.913935 
L 235.399404 265.625057 
L 235.719655 67.443711 
L 235.799718 83.732589 
L 236.119969 281.913935 
L 236.200031 265.323411 
L 236.520282 67.443711 
L 236.600345 83.732589 
L 236.920596 281.913935 
L 237.000659 265.926703 
L 237.32091 67.142065 
L 237.400973 83.732589 
L 237.721224 281.913935 
L 237.801287 265.625057 
L 238.121538 67.142065 
L 238.201601 83.732589 
L 238.521852 281.913935 
L 238.601915 265.625057 
L 238.922166 67.443711 
L 239.002228 83.430943 
L 239.32248 281.913935 
L 239.402542 265.926703 
L 239.722793 67.443711 
L 239.802856 83.129297 
L 240.123107 281.913935 
L 240.20317 265.926703 
L 240.523421 67.443711 
L 240.603484 83.430943 
L 240.923735 281.913935 
L 241.003798 265.625057 
L 241.324049 67.142065 
L 241.404112 83.430943 
L 241.724363 281.913935 
L 241.804426 265.926703 
L 242.124677 67.443711 
L 242.204739 83.129297 
L 242.52499 281.612289 
L 242.605053 265.926703 
L 242.925304 67.443711 
L 243.005367 83.129297 
L 243.325618 281.913935 
L 243.405681 265.926703 
L 243.725932 67.745357 
L 243.805995 82.827651 
L 244.126246 281.913935 
L 244.206309 266.529995 
L 244.52656 67.443711 
L 244.606623 82.827651 
L 244.926874 281.612289 
L 245.006936 266.228349 
L 245.327188 67.142065 
L 245.40725 83.129297 
L 245.727501 281.612289 
L 245.807564 266.529995 
L 246.127815 67.142065 
L 246.207878 82.526005 
L 246.528129 281.612289 
L 246.608192 266.831641 
L 246.928443 67.443711 
L 247.008506 82.224359 
L 247.328757 281.612289 
L 247.40882 266.831641 
L 247.729071 67.443711 
L 247.809134 82.526005 
L 248.129385 281.612289 
L 248.209447 266.831641 
L 248.529698 67.142065 
L 248.609761 82.224359 
L 248.930012 281.913935 
L 249.010075 266.831641 
L 249.330326 67.443711 
L 249.410389 82.224359 
L 249.73064 281.612289 
L 249.810703 267.133287 
L 250.130954 67.443711 
L 250.211017 82.224359 
L 250.531268 281.612289 
L 250.611331 267.133287 
L 250.931582 67.443711 
L 251.011644 82.224359 
L 251.331896 281.612289 
L 251.411958 267.133287 
L 251.732209 67.443711 
L 251.812272 81.922713 
L 252.132523 281.612289 
L 252.212586 267.133287 
L 252.532837 67.443711 
L 252.6129 81.922713 
L 252.933151 281.612289 
L 253.013214 267.434933 
L 253.333465 67.443711 
L 253.413528 81.922713 
L 253.733779 281.612289 
L 253.813841 267.434933 
L 254.134093 67.443711 
L 254.214155 81.621067 
L 254.534406 281.913935 
L 254.614469 267.133287 
L 254.93472 67.443711 
L 255.014783 81.621067 
L 255.335034 281.612289 
L 255.415097 267.434933 
L 255.735348 67.443711 
L 255.815411 81.621067 
L 256.135662 281.612289 
L 256.215725 267.434933 
L 256.535976 67.443711 
L 256.616039 81.621067 
L 256.93629 281.612289 
L 257.016352 267.736579 
L 257.336604 67.443711 
L 257.416666 81.621067 
L 257.736917 281.913935 
L 257.81698 267.434933 
L 258.137231 67.745357 
L 258.217294 81.621067 
L 258.537545 281.913935 
L 258.617608 267.736579 
L 258.937859 67.443711 
L 259.017922 81.319421 
L 259.338173 281.612289 
L 259.418236 267.736579 
L 259.738487 67.443711 
L 259.818549 81.621067 
L 260.138801 281.913935 
L 260.218863 267.736579 
L 260.539114 67.142065 
L 260.619177 81.621067 
L 260.939428 281.612289 
L 261.019491 267.736579 
L 261.339742 67.443711 
L 261.419805 81.621067 
L 261.740056 281.913935 
L 261.820119 267.736579 
L 262.14037 67.443711 
L 262.220433 81.319421 
L 262.540684 281.913935 
L 262.620747 267.736579 
L 262.940998 67.745357 
L 263.02106 81.319421 
L 263.341312 281.612289 
L 263.421374 267.736579 
L 263.741625 67.443711 
L 263.821688 81.621067 
L 264.141939 281.612289 
L 264.222002 267.736579 
L 264.542253 67.142065 
L 264.622316 81.319421 
L 264.942567 281.913935 
L 265.02263 267.736579 
L 265.342881 67.443711 
L 265.422944 81.319421 
L 265.743195 281.913935 
L 265.823257 267.736579 
L 266.143509 67.443711 
L 266.223571 81.621067 
L 266.543822 281.913935 
L 266.623885 267.736579 
L 266.944136 67.142065 
L 267.024199 81.319421 
L 267.34445 281.913935 
L 267.424513 267.736579 
L 267.744764 67.142065 
L 267.824827 81.319421 
L 268.145078 281.913935 
L 268.225141 267.736579 
L 268.545392 67.142065 
L 268.625455 81.621067 
L 268.945706 281.913935 
L 269.025768 267.736579 
L 269.34602 67.443711 
L 269.426082 81.319421 
L 269.746333 281.913935 
L 269.826396 268.038224 
L 270.146647 67.443711 
L 270.22671 81.319421 
L 270.546961 281.913935 
L 270.627024 267.736579 
L 270.947275 67.443711 
L 271.027338 81.319421 
L 271.347589 281.612289 
L 271.427652 268.038224 
L 271.747903 67.443711 
L 271.827965 81.319421 
L 272.148217 281.913935 
L 272.228279 268.038224 
L 272.54853 67.745357 
L 272.628593 81.017776 
L 272.948844 281.612289 
L 273.028907 268.038224 
L 273.349158 67.443711 
L 273.429221 81.017776 
L 273.749472 281.612289 
L 273.829535 268.038224 
L 274.149786 67.443711 
L 274.229849 81.017776 
L 274.5501 281.913935 
L 274.630163 268.038224 
L 274.950414 67.142065 
L 275.030476 80.71613 
L 275.350727 281.612289 
L 275.43079 268.038224 
L 275.751041 67.443711 
L 275.831104 80.71613 
L 276.151355 281.612289 
L 276.231418 268.33987 
L 276.551669 67.443711 
L 276.631732 81.017776 
L 276.951983 281.913935 
L 277.032046 268.33987 
L 277.352297 67.443711 
L 277.43236 80.71613 
L 277.752611 281.612289 
L 277.832673 268.038224 
L 278.152925 67.443711 
L 278.232987 81.017776 
L 278.553238 281.612289 
L 278.633301 268.33987 
L 278.953552 67.443711 
L 279.033615 80.71613 
L 279.353866 281.612289 
L 279.433929 268.33987 
L 279.75418 67.443711 
L 279.834243 80.71613 
L 280.154494 281.612289 
L 280.234557 268.641516 
L 280.554808 67.745357 
L 280.634871 80.71613 
L 280.955122 281.612289 
L 281.035184 268.641516 
L 281.355435 67.443711 
L 281.435498 80.71613 
L 281.755749 281.612289 
L 281.835812 268.641516 
L 282.156063 67.443711 
L 282.236126 80.71613 
L 282.556377 281.612289 
L 282.63644 268.641516 
L 282.956691 67.443711 
L 283.036754 80.414484 
L 283.357005 281.612289 
L 283.437068 268.641516 
L 283.757319 67.443711 
L 283.837381 80.71613 
L 284.157633 281.612289 
L 284.237695 268.33987 
L 284.557946 67.443711 
L 284.638009 80.414484 
L 284.95826 281.612289 
L 285.038323 268.641516 
L 285.358574 67.443711 
L 285.438637 80.414484 
L 285.758888 281.612289 
L 285.838951 268.641516 
L 286.159202 67.443711 
L 286.239265 80.71613 
L 286.559516 281.612289 
L 286.639579 268.33987 
L 286.95983 67.443711 
L 287.039892 80.71613 
L 287.360143 281.612289 
L 287.440206 268.33987 
L 287.760457 67.443711 
L 287.84052 80.71613 
L 288.160771 281.612289 
L 288.240834 268.641516 
L 288.561085 67.443711 
L 288.641148 80.71613 
L 288.961399 281.612289 
L 289.041462 268.33987 
L 289.361713 67.142065 
L 289.441776 80.71613 
L 289.762027 281.913935 
L 289.842089 268.33987 
L 290.162341 67.142065 
L 290.242403 80.71613 
L 290.562654 282.215581 
L 290.642717 268.33987 
L 290.962968 67.443711 
L 291.043031 80.71613 
L 291.363282 282.215581 
L 291.443345 268.33987 
L 291.763596 66.840419 
L 291.843659 80.71613 
L 292.16391 281.913935 
L 292.243973 268.33987 
L 292.564224 66.840419 
L 292.644287 81.017776 
L 292.964538 282.215581 
L 293.0446 268.33987 
L 293.364851 67.142065 
L 293.444914 80.71613 
L 293.765165 281.913935 
L 293.845228 268.33987 
L 294.165479 67.142065 
L 294.245542 80.71613 
L 294.565793 281.913935 
L 294.645856 268.33987 
L 294.966107 66.840419 
L 295.04617 81.017776 
L 295.366421 281.913935 
L 295.446484 268.33987 
L 295.766735 66.840419 
L 295.846797 80.71613 
L 296.167049 282.215581 
L 296.247111 268.33987 
L 296.567362 67.142065 
L 296.647425 81.017776 
L 296.967676 282.215581 
L 297.047739 268.33987 
L 297.36799 67.142065 
L 297.448053 81.017776 
L 297.768304 282.215581 
L 297.848367 268.33987 
L 298.168618 66.840419 
L 298.248681 81.017776 
L 298.568932 281.913935 
L 298.648995 268.641516 
L 298.969246 67.142065 
L 299.049308 80.71613 
L 299.369559 282.215581 
L 299.449622 268.641516 
L 299.769873 67.142065 
L 299.849936 81.017776 
L 300.170187 281.913935 
L 300.25025 268.33987 
L 300.570501 67.142065 
L 300.650564 81.017776 
L 300.970815 281.913935 
L 301.050878 268.33987 
L 301.371129 67.142065 
L 301.451192 80.71613 
L 301.771443 281.913935 
L 301.851505 268.33987 
L 302.171757 67.443711 
L 302.251819 81.017776 
L 302.57207 282.215581 
L 302.652133 268.33987 
L 302.972384 67.142065 
L 303.052447 80.71613 
L 303.372698 281.612289 
L 303.452761 268.33987 
L 303.773012 67.443711 
L 303.853075 80.71613 
L 304.173326 281.913935 
L 304.253389 268.641516 
L 304.57364 67.443711 
L 304.653702 80.71613 
L 304.973954 281.612289 
L 305.054016 268.641516 
L 305.374267 67.142065 
L 305.45433 80.71613 
L 305.774581 281.612289 
L 305.854644 268.641516 
L 306.174895 67.443711 
L 306.254958 80.71613 
L 306.575209 281.612289 
L 306.655272 268.943162 
L 306.975523 67.443711 
L 307.055586 80.71613 
L 307.375837 281.612289 
L 307.4559 268.943162 
L 307.776151 68.047002 
L 307.856213 80.414484 
L 308.176465 281.612289 
L 308.256527 268.641516 
L 308.576778 67.443711 
L 308.656841 81.017776 
L 308.977092 281.612289 
L 309.057155 268.943162 
L 309.377406 67.745357 
L 309.457469 80.414484 
L 309.77772 281.612289 
L 309.857783 268.641516 
L 310.178034 68.047002 
L 310.258097 80.71613 
L 310.578348 281.310643 
L 310.65841 268.641516 
L 310.978662 67.745357 
L 311.058724 80.112838 
L 311.378975 281.310643 
L 311.459038 268.641516 
L 311.779289 67.745357 
L 311.859352 80.414484 
L 312.179603 281.008998 
L 312.259666 268.641516 
L 312.579917 67.745357 
L 312.65998 80.112838 
L 312.980231 281.310643 
L 313.060294 268.641516 
L 313.380545 67.745357 
L 313.460608 80.71613 
L 313.780859 281.008998 
L 313.860921 268.641516 
L 314.181173 67.745357 
L 314.261235 80.414484 
L 314.581486 281.008998 
L 314.661549 268.641516 
L 314.9818 67.443711 
L 315.061863 80.414484 
L 315.382114 281.310643 
L 315.462177 268.943162 
L 315.782428 68.047002 
L 315.862491 80.414484 
L 316.182742 281.310643 
L 316.262805 268.641516 
L 316.583056 67.745357 
L 316.663118 80.414484 
L 316.98337 281.310643 
L 317.063432 268.641516 
L 317.383683 67.745357 
L 317.463746 80.414484 
L 317.783997 281.310643 
L 317.86406 268.943162 
L 318.184311 67.745357 
L 318.264374 80.414484 
L 318.584625 281.310643 
L 318.664688 268.33987 
L 318.984939 67.745357 
L 319.065002 80.414484 
L 319.385253 281.008998 
L 319.465316 268.641516 
L 319.785567 67.443711 
L 319.865629 80.414484 
L 320.185881 281.310643 
L 320.265943 268.641516 
L 320.586194 67.745357 
L 320.666257 80.414484 
L 320.986508 281.310643 
L 321.066571 268.641516 
L 321.386822 67.443711 
L 321.466885 80.414484 
L 321.787136 281.310643 
L 321.867199 268.943162 
L 322.18745 67.443711 
L 322.267513 80.112838 
L 322.587764 281.310643 
L 322.667826 268.943162 
L 322.988078 67.443711 
L 323.06814 80.414484 
L 323.388391 281.310643 
L 323.468454 268.943162 
L 323.788705 67.443711 
L 323.868768 80.414484 
L 324.189019 281.913935 
L 324.269082 268.943162 
L 324.589333 67.443711 
L 324.669396 80.414484 
L 324.989647 281.612289 
L 325.06971 268.943162 
L 325.389961 67.142065 
L 325.470024 80.112838 
L 325.790275 281.612289 
L 325.870337 269.244808 
L 326.190588 67.443711 
L 326.270651 80.112838 
L 326.590902 281.612289 
L 326.670965 268.943162 
L 326.991216 67.443711 
L 327.071279 80.112838 
L 327.39153 281.612289 
L 327.471593 269.244808 
L 327.791844 67.443711 
L 327.871907 80.112838 
L 328.192158 281.913935 
L 328.272221 269.244808 
L 328.592472 67.142065 
L 328.672534 79.811192 
L 328.992786 281.612289 
L 329.072848 269.546454 
L 329.393099 67.443711 
L 329.473162 79.811192 
L 329.793413 281.612289 
L 329.873476 269.244808 
L 330.193727 67.443711 
L 330.27379 79.509546 
L 330.594041 281.913935 
L 330.674104 269.244808 
L 330.994355 67.443711 
L 331.074418 79.811192 
L 331.394669 281.913935 
L 331.474732 269.546454 
L 331.794983 67.142065 
L 331.875045 79.509546 
L 332.195296 281.612289 
L 332.275359 269.8481 
L 332.59561 67.443711 
L 332.675673 79.2079 
L 332.995924 281.612289 
L 333.075987 269.8481 
L 333.396238 67.443711 
L 333.476301 79.509546 
L 333.796552 281.913935 
L 333.876615 269.8481 
L 334.196866 67.443711 
L 334.276929 79.2079 
L 334.59718 281.612289 
L 334.677242 269.8481 
L 334.997494 67.443711 
L 335.077556 79.2079 
L 335.397807 281.913935 
L 335.47787 270.149746 
L 335.798121 67.443711 
L 335.878184 79.2079 
L 336.198435 281.913935 
L 336.278498 269.8481 
L 336.598749 67.142065 
L 336.678812 79.2079 
L 336.999063 281.913935 
L 337.079126 270.149746 
L 337.399377 67.142065 
L 337.47944 78.906254 
L 337.799691 281.612289 
L 337.879753 270.149746 
L 338.200004 67.443711 
L 338.280067 78.906254 
L 338.600318 281.913935 
L 338.680381 270.451392 
L 339.000632 67.443711 
L 339.080695 78.604608 
L 339.400946 281.612289 
L 339.481009 270.451392 
L 339.80126 67.443711 
L 339.881323 78.906254 
L 340.201574 281.612289 
L 340.281637 270.451392 
L 340.601888 67.443711 
L 340.68195 78.906254 
L 341.002202 281.913935 
L 341.082264 270.451392 
L 341.402515 67.443711 
L 341.482578 78.604608 
L 341.802829 281.612289 
L 341.882892 270.451392 
L 342.203143 67.443711 
L 342.283206 78.604608 
L 342.603457 281.913935 
L 342.68352 270.451392 
L 343.003771 67.443711 
L 343.083834 78.604608 
L 343.404085 281.612289 
L 343.484148 270.753037 
L 343.804399 67.443711 
L 343.884461 78.906254 
L 344.204712 281.913935 
L 344.284775 270.451392 
L 344.605026 67.443711 
L 344.685089 78.604608 
L 345.00534 281.913935 
L 345.085403 270.451392 
L 345.405654 67.142065 
L 345.485717 78.906254 
L 345.805968 281.612289 
L 345.886031 270.451392 
L 346.206282 67.745357 
L 346.286345 78.604608 
L 346.606596 281.612289 
L 346.686658 270.451392 
L 347.00691 67.443711 
L 347.086972 78.604608 
L 347.407223 281.612289 
L 347.487286 270.753037 
L 347.807537 67.443711 
L 347.8876 78.604608 
L 348.207851 281.612289 
L 348.287914 270.451392 
L 348.608165 67.443711 
L 348.688228 78.604608 
L 349.008479 281.913935 
L 349.088542 270.451392 
L 349.408793 67.443711 
L 349.488856 78.604608 
L 349.809107 281.612289 
L 349.889169 270.451392 
L 350.20942 67.443711 
L 350.289483 78.604608 
L 350.609734 281.612289 
L 350.689797 270.753037 
L 351.010048 67.745357 
L 351.090111 78.906254 
L 351.410362 281.612289 
L 351.490425 270.149746 
L 351.810676 67.443711 
L 351.890739 78.906254 
L 352.21099 281.612289 
L 352.291053 270.451392 
L 352.611304 67.745357 
L 352.691366 78.604608 
L 353.011618 281.310643 
L 353.09168 270.451392 
L 353.411931 68.047002 
L 353.491994 78.604608 
L 353.812245 281.310643 
L 353.892308 270.451392 
L 354.212559 67.745357 
L 354.292622 78.906254 
L 354.612873 281.310643 
L 354.692936 270.451392 
L 355.013187 67.443711 
L 355.09325 78.604608 
L 355.413501 281.310643 
L 355.493564 270.451392 
L 355.813815 67.745357 
L 355.893877 78.604608 
L 356.214128 281.310643 
L 356.294191 270.451392 
L 356.614442 68.047002 
L 356.694505 78.604608 
L 357.014756 281.310643 
L 357.094819 270.451392 
L 357.41507 67.745357 
L 357.495133 78.906254 
L 357.815384 281.612289 
L 357.895447 270.451392 
L 358.215698 67.443711 
L 358.295761 78.604608 
L 358.616012 281.310643 
L 358.696074 270.451392 
L 359.016326 67.745357 
L 359.096388 79.2079 
L 359.416639 281.310643 
L 359.496702 270.451392 
L 359.816953 67.745357 
L 359.897016 78.604608 
L 360.217267 281.612289 
L 360.29733 270.451392 
L 360.617581 67.745357 
L 360.697644 78.604608 
L 361.017895 281.310643 
L 361.097958 270.451392 
L 361.418209 67.745357 
L 361.498271 78.906254 
L 361.818523 281.612289 
L 361.898585 270.451392 
L 362.218836 67.745357 
L 362.298899 78.604608 
L 362.61915 281.310643 
L 362.699213 270.451392 
L 363.019464 67.745357 
L 363.099527 78.302963 
L 363.419778 281.310643 
L 363.499841 270.753037 
L 363.820092 67.745357 
L 363.900155 78.604608 
L 364.220406 281.310643 
L 364.300469 270.753037 
L 364.62072 67.745357 
L 364.700782 78.302963 
L 365.021034 281.310643 
L 365.101096 270.753037 
L 365.421347 67.443711 
L 365.50141 78.604608 
L 365.821661 281.612289 
L 365.901724 270.753037 
L 366.221975 67.745357 
L 366.302038 78.302963 
L 366.622289 281.612289 
L 366.702352 270.753037 
L 367.022603 67.443711 
L 367.102666 78.604608 
L 367.422917 281.612289 
L 367.502979 270.753037 
L 367.823231 67.443711 
L 367.903293 78.302963 
L 368.223544 281.310643 
L 368.303607 270.753037 
L 368.623858 67.443711 
L 368.703921 78.302963 
L 369.024172 281.612289 
L 369.104235 270.451392 
L 369.424486 67.443711 
L 369.504549 78.302963 
L 369.8248 281.612289 
L 369.904863 270.753037 
L 370.225114 67.745357 
L 370.305177 78.302963 
L 370.625428 281.310643 
L 370.70549 271.054683 
L 371.025742 67.745357 
L 371.105804 78.302963 
L 371.426055 281.612289 
L 371.506118 270.753037 
L 371.826369 67.443711 
L 371.906432 78.302963 
L 372.226683 281.913935 
L 372.306746 271.054683 
L 372.626997 67.443711 
L 372.70706 78.001317 
L 373.027311 281.612289 
L 373.107374 271.356329 
L 373.427625 67.443711 
L 373.507687 78.001317 
L 373.827939 281.612289 
L 373.908001 271.054683 
L 374.228252 67.443711 
L 374.308315 78.302963 
L 374.628566 281.913935 
L 374.708629 271.054683 
L 375.02888 67.443711 
L 375.108943 78.001317 
L 375.429194 281.913935 
L 375.509257 271.054683 
L 375.829508 67.142065 
L 375.909571 78.302963 
L 376.229822 281.913935 
L 376.309885 270.753037 
L 376.630136 67.142065 
L 376.710198 78.001317 
L 377.03045 281.913935 
L 377.110512 271.054683 
L 377.430763 67.142065 
L 377.510826 78.001317 
L 377.831077 281.612289 
L 377.91114 271.054683 
L 378.231391 67.142065 
L 378.311454 78.001317 
L 378.631705 281.913935 
L 378.711768 271.054683 
L 379.032019 67.443711 
L 379.112082 78.001317 
L 379.432333 281.913935 
L 379.512395 271.356329 
L 379.832647 67.142065 
L 379.912709 78.001317 
L 380.23296 281.913935 
L 380.313023 271.054683 
L 380.633274 67.142065 
L 380.713337 78.001317 
L 381.033588 281.913935 
L 381.113651 271.356329 
L 381.433902 67.142065 
L 381.513965 77.699671 
L 381.834216 281.913935 
L 381.914279 271.054683 
L 382.23453 67.142065 
L 382.314593 78.001317 
L 382.634844 281.310643 
L 382.714906 271.356329 
L 383.035157 67.142065 
L 383.11522 78.001317 
L 383.435471 281.612289 
L 383.515534 271.356329 
L 383.835785 67.443711 
L 383.915848 77.699671 
L 384.236099 281.913935 
L 384.316162 271.054683 
L 384.636413 67.142065 
L 384.716476 78.001317 
L 385.036727 281.612289 
L 385.11679 271.356329 
L 385.437041 67.142065 
L 385.517103 78.001317 
L 385.837355 281.612289 
L 385.917417 271.356329 
L 386.237668 67.443711 
L 386.317731 77.699671 
L 386.637982 281.612289 
L 386.718045 271.356329 
L 387.038296 67.443711 
L 387.118359 77.699671 
L 387.43861 281.612289 
L 387.518673 271.356329 
L 387.838924 67.745357 
L 387.918987 77.699671 
L 388.239238 281.612289 
L 388.319301 271.356329 
L 388.639552 67.745357 
L 388.719614 77.398025 
L 389.039865 281.310643 
L 389.119928 271.356329 
L 389.440179 67.745357 
L 389.520242 77.699671 
L 389.840493 281.310643 
L 389.920556 271.356329 
L 390.240807 68.047002 
L 390.32087 77.699671 
L 390.641121 281.310643 
L 390.721184 271.657975 
L 391.041435 67.745357 
L 391.121498 77.699671 
L 391.441749 281.008998 
L 391.521811 271.356329 
L 391.842063 68.047002 
L 391.922125 77.699671 
L 392.242376 281.008998 
L 392.322439 271.356329 
L 392.64269 68.047002 
L 392.722753 77.398025 
L 393.043004 281.008998 
L 393.123067 271.356329 
L 393.443318 68.047002 
L 393.523381 77.699671 
L 393.843632 281.008998 
L 393.923695 271.657975 
L 394.243946 68.047002 
L 394.324009 77.699671 
L 394.64426 280.707352 
L 394.724322 271.657975 
L 395.044573 68.650294 
L 395.124636 77.699671 
L 395.444887 281.310643 
L 395.52495 271.356329 
L 395.845201 67.745357 
L 395.925264 78.001317 
L 396.245515 281.008998 
L 396.325578 271.959621 
L 396.645829 68.047002 
L 396.725892 77.398025 
L 397.046143 281.008998 
L 397.126206 271.356329 
L 397.446457 68.650294 
L 397.526519 77.699671 
L 397.846771 281.008998 
L 397.926833 271.657975 
L 398.247084 68.047002 
L 398.327147 77.096379 
L 398.487273 156.730893 
L 398.487273 156.730893 
" style="fill:none;stroke:#1f77b4;stroke-linecap:square;stroke-width:1.5;"/>
   </g>
   <g id="patch_3">
    <path d="M 57.6 307.584 
L 57.6 41.472 
" style="fill:none;stroke:#000000;stroke-linecap:square;stroke-linejoin:miter;stroke-width:0.8;"/>
   </g>
   <g id="patch_4">
    <path d="M 414.72 307.584 
L 414.72 41.472 
" style="fill:none;stroke:#000000;stroke-linecap:square;stroke-linejoin:miter;stroke-width:0.8;"/>
   </g>
   <g id="patch_5">
    <path d="M 57.6 307.584 
L 414.72 307.584 
" style="fill:none;stroke:#000000;stroke-linecap:square;stroke-linejoin:miter;stroke-width:0.8;"/>
   </g>
   <g id="patch_6">
    <path d="M 57.6 41.472 
L 414.72 41.472 
" style="fill:none;stroke:#000000;stroke-linecap:square;stroke-linejoin:miter;stroke-width:0.8;"/>
   </g>
   <g id="legend_1">
    <g id="patch_7">
     <path d="M 264.596563 64.42825 
L 407.72 64.42825 
Q 409.72 64.42825 409.72 62.42825 
L 409.72 48.472 
Q 409.72 46.472 407.72 46.472 
L 264.596563 46.472 
Q 262.596563 46.472 262.596563 48.472 
L 262.596563 62.42825 
Q 262.596563 64.42825 264.596563 64.42825 
z
" style="fill:#ffffff;opacity:0.8;stroke:#cccccc;stroke-linejoin:miter;"/>
    </g>
    <g id="line2d_20">
     <path d="M 266.596563 54.570437 
L 286.596563 54.570437 
" style="fill:none;stroke:#1f77b4;stroke-linecap:square;stroke-width:1.5;"/>
    </g>
    <g id="line2d_21"/>
    <g id="text_19">
     <!-- Uc_330 kV_ВЛ-330-09 -->
     <defs>
      <path d="M 8.6875 72.90625 
L 18.609375 72.90625 
L 18.609375 28.609375 
Q 18.609375 16.890625 22.84375 11.734375 
Q 27.09375 6.59375 36.625 6.59375 
Q 46.09375 6.59375 50.34375 11.734375 
Q 54.59375 16.890625 54.59375 28.609375 
L 54.59375 72.90625 
L 64.5 72.90625 
L 64.5 27.390625 
Q 64.5 13.140625 57.4375 5.859375 
Q 50.390625 -1.421875 36.625 -1.421875 
Q 22.796875 -1.421875 15.734375 5.859375 
Q 8.6875 13.140625 8.6875 27.390625 
z
" id="DejaVuSans-85"/>
      <path d="M 48.78125 52.59375 
L 48.78125 44.1875 
Q 44.96875 46.296875 41.140625 47.34375 
Q 37.3125 48.390625 33.40625 48.390625 
Q 24.65625 48.390625 19.8125 42.84375 
Q 14.984375 37.3125 14.984375 27.296875 
Q 14.984375 17.28125 19.8125 11.734375 
Q 24.65625 6.203125 33.40625 6.203125 
Q 37.3125 6.203125 41.140625 7.25 
Q 44.96875 8.296875 48.78125 10.40625 
L 48.78125 2.09375 
Q 45.015625 0.34375 40.984375 -0.53125 
Q 36.96875 -1.421875 32.421875 -1.421875 
Q 20.0625 -1.421875 12.78125 6.34375 
Q 5.515625 14.109375 5.515625 27.296875 
Q 5.515625 40.671875 12.859375 48.328125 
Q 20.21875 56 33.015625 56 
Q 37.15625 56 41.109375 55.140625 
Q 45.0625 54.296875 48.78125 52.59375 
z
" id="DejaVuSans-99"/>
      <path d="M 50.984375 -16.609375 
L 50.984375 -23.578125 
L -0.984375 -23.578125 
L -0.984375 -16.609375 
z
" id="DejaVuSans-95"/>
      <path id="DejaVuSans-32"/>
      <path d="M 9.078125 75.984375 
L 18.109375 75.984375 
L 18.109375 31.109375 
L 44.921875 54.6875 
L 56.390625 54.6875 
L 27.390625 29.109375 
L 57.625 0 
L 45.90625 0 
L 18.109375 26.703125 
L 18.109375 0 
L 9.078125 0 
z
" id="DejaVuSans-107"/>
      <path d="M 28.609375 0 
L 0.78125 72.90625 
L 11.078125 72.90625 
L 34.1875 11.53125 
L 57.328125 72.90625 
L 67.578125 72.90625 
L 39.796875 0 
z
" id="DejaVuSans-86"/>
      <path d="M 19.671875 34.8125 
L 19.671875 8.109375 
L 35.5 8.109375 
Q 43.453125 8.109375 47.28125 11.40625 
Q 51.125 14.703125 51.125 21.484375 
Q 51.125 28.328125 47.28125 31.5625 
Q 43.453125 34.8125 35.5 34.8125 
z
M 19.671875 64.796875 
L 19.671875 42.828125 
L 34.28125 42.828125 
Q 41.5 42.828125 45.03125 45.53125 
Q 48.578125 48.25 48.578125 53.8125 
Q 48.578125 59.328125 45.03125 62.0625 
Q 41.5 64.796875 34.28125 64.796875 
z
M 9.8125 72.90625 
L 35.015625 72.90625 
Q 46.296875 72.90625 52.390625 68.21875 
Q 58.5 63.53125 58.5 54.890625 
Q 58.5 48.1875 55.375 44.234375 
Q 52.25 40.28125 46.1875 39.3125 
Q 53.46875 37.75 57.5 32.78125 
Q 61.53125 27.828125 61.53125 20.40625 
Q 61.53125 10.640625 54.890625 5.3125 
Q 48.25 0 35.984375 0 
L 9.8125 0 
z
" id="DejaVuSans-1042"/>
      <path d="M 4.109375 0 
L 4.109375 8.296875 
Q 14.703125 10.59375 17.71875 18.609375 
Q 21.96875 31.203125 21.96875 60.5 
L 21.96875 72.90625 
L 65.328125 72.90625 
L 65.328125 0 
L 55.46875 0 
L 55.46875 64.59375 
L 31.78125 64.59375 
L 31.78125 55.609375 
Q 31.78125 27.984375 26.8125 15.09375 
Q 22.015625 2.734375 4.109375 0 
z
" id="DejaVuSans-1051"/>
      <path d="M 4.890625 31.390625 
L 31.203125 31.390625 
L 31.203125 23.390625 
L 4.890625 23.390625 
z
" id="DejaVuSans-45"/>
      <path d="M 10.984375 1.515625 
L 10.984375 10.5 
Q 14.703125 8.734375 18.5 7.8125 
Q 22.3125 6.890625 25.984375 6.890625 
Q 35.75 6.890625 40.890625 13.453125 
Q 46.046875 20.015625 46.78125 33.40625 
Q 43.953125 29.203125 39.59375 26.953125 
Q 35.25 24.703125 29.984375 24.703125 
Q 19.046875 24.703125 12.671875 31.3125 
Q 6.296875 37.9375 6.296875 49.421875 
Q 6.296875 60.640625 12.9375 67.421875 
Q 19.578125 74.21875 30.609375 74.21875 
Q 43.265625 74.21875 49.921875 64.515625 
Q 56.59375 54.828125 56.59375 36.375 
Q 56.59375 19.140625 48.40625 8.859375 
Q 40.234375 -1.421875 26.421875 -1.421875 
Q 22.703125 -1.421875 18.890625 -0.6875 
Q 15.09375 0.046875 10.984375 1.515625 
z
M 30.609375 32.421875 
Q 37.25 32.421875 41.125 36.953125 
Q 45.015625 41.5 45.015625 49.421875 
Q 45.015625 57.28125 41.125 61.84375 
Q 37.25 66.40625 30.609375 66.40625 
Q 23.96875 66.40625 20.09375 61.84375 
Q 16.21875 57.28125 16.21875 49.421875 
Q 16.21875 41.5 20.09375 36.953125 
Q 23.96875 32.421875 30.609375 32.421875 
z
" id="DejaVuSans-57"/>
     </defs>
     <g transform="translate(294.596563 58.070437)scale(0.1 -0.1)">
      <use xlink:href="#DejaVuSans-85"/>
      <use x="73.193359" xlink:href="#DejaVuSans-99"/>
      <use x="128.173828" xlink:href="#DejaVuSans-95"/>
      <use x="178.173828" xlink:href="#DejaVuSans-51"/>
      <use x="241.796875" xlink:href="#DejaVuSans-51"/>
      <use x="305.419922" xlink:href="#DejaVuSans-48"/>
      <use x="369.042969" xlink:href="#DejaVuSans-32"/>
      <use x="400.830078" xlink:href="#DejaVuSans-107"/>
      <use x="458.740234" xlink:href="#DejaVuSans-86"/>
      <use x="527.148438" xlink:href="#DejaVuSans-95"/>
      <use x="577.148438" xlink:href="#DejaVuSans-1042"/>
      <use x="645.751953" xlink:href="#DejaVuSans-1051"/>
      <use x="720.947266" xlink:href="#DejaVuSans-45"/>
      <use x="757.03125" xlink:href="#DejaVuSans-51"/>
      <use x="820.654297" xlink:href="#DejaVuSans-51"/>
      <use x="884.277344" xlink:href="#DejaVuSans-48"/>
      <use x="947.900391" xlink:href="#DejaVuSans-45"/>
      <use x="983.984375" xlink:href="#DejaVuSans-48"/>
      <use x="1047.607422" xlink:href="#DejaVuSans-57"/>
     </g>
    </g>
   </g>
  </g>
 </g>
 <defs>
  <clipPath id="p24fafadb46">
   <rect height="266.112" width="357.12" x="57.6" y="41.472"/>
  </clipPath>
 </defs>
</svg>
